<?xml version="1.0" encoding="UTF-8" standalone="no"?>
<svg style="enable-background:new" xmlns="http://www.w3.org/2000/svg" height="512" width="512" version="1.1" viewBox="0 0 512 512">
 <path d="m-0.3471 0v512h512v-512z" fill="#d3d3d3"/>
 <path opacity=".25" d="m0.3471 256v256h512v-256z" fill="#fff"/>
 <circle cy="256" cx="256" r="185" fill="#454545"/>
 <path opacity=".2" d="m256 111.8c-10.78-0.12-14.55 0.2805-16.07 13.32l-0.5779 4.607c-1.331 8.456-1.585 12.29-9.586 14.36-0.5361 0.1198-1.071 0.24-1.605 0.367-0.1262 0.026-0.2376 0.0564-0.367 0.082l0.016 0.004c-2.02 0.4873-4.018 1.028-5.997 1.616l0.02-0.0234c-0.3306 0.113-0.6318 0.2029-0.9449 0.3006-0.2996 0.0916-0.5994 0.1795-0.8981 0.2733-8.04 2.255-10.17-0.9348-15.57-7.618l-2.807-3.702c-3.916-5.266-6.737-7.514-9.742-7.758-0.3756-0.0306-0.7563-0.0302-1.14 0-2.687 0.2108-5.632 1.86-9.691 4.264-9.398 5.288-12.46 7.516-7.259 19.57l1.8 4.279c3.311 8.601 5.035 11.93-2.604 18.6l0.203-0.0468c-1.579 1.497-3.115 3.036-4.611 4.615l0.043-0.203c-6.672 7.639-10 5.916-18.6 2.604l-4.279-1.804c-3.766-1.627-6.572-2.444-8.813-2.515-4.929-0.1543-7.118 3.312-10.75 9.773-5.495 9.278-7.038 12.74 3.495 20.58l3.702 2.807c6.683 5.401 9.873 7.528 7.618 15.57-0.094 0.2986-0.1817 0.5985-0.2733 0.898-0.0978 0.3131-0.1837 0.6143-0.2968 0.9449l0.02-0.02c-0.5881 1.979-1.129 3.978-1.617 5.997l-0.004-0.016c-0.0254 0.1293-0.056 0.241-0.082 0.367-0.127 0.5334-0.2472 1.069-0.367 1.605-2.072 8-5.901 8.255-14.36 9.586l-4.607 0.5779c-13.04 1.517-13.44 5.288-13.32 16.07-0.1199 10.78 0.2805 14.55 13.32 16.07l4.607 0.5779c8.456 1.331 12.29 1.585 14.36 9.586 0.1197 0.5361 0.24 1.071 0.367 1.605 0.026 0.1261 0.0564 0.2376 0.082 0.367l0.004-0.016c0.4873 2.02 1.028 4.018 1.617 5.997l-0.0234-0.02c0.113 0.3306 0.2028 0.6318 0.3006 0.9449 0.0916 0.2996 0.1793 0.5995 0.2733 0.898 2.255 8.04-0.9348 10.17-7.618 15.57l-3.702 2.807c-10.53 7.833-8.99 11.29-3.495 20.57 5.288 9.398 7.516 12.46 19.57 7.259l4.279-1.8c8.601-3.311 11.93-5.035 18.6 2.604l-0.0468-0.203c1.497 1.579 3.036 3.115 4.615 4.611l-0.203-0.043c7.639 6.672 5.916 10 2.604 18.6l-1.804 4.279c-5.206 12.05-2.14 14.28 7.259 19.57 9.278 5.495 12.74 7.034 20.58-3.499l2.807-3.702c5.401-6.683 7.528-9.873 15.57-7.618 0.2986 0.094 0.5985 0.1817 0.8981 0.2733 0.3131 0.0978 0.6143 0.1875 0.9449 0.3006l-0.02-0.0234c1.979 0.5881 3.978 1.129 5.997 1.616l-0.016 0.004c0.1294 0.0256 0.241 0.056 0.367 0.082 0.5334 0.127 1.069 0.2472 1.605 0.367 8 2.072 8.255 5.901 9.586 14.36l0.5779 4.607c1.517 13.04 5.288 13.44 16.07 13.32 10.78 0.12 14.55-0.2805 16.07-13.32l0.5779-4.607c1.331-8.456 1.585-12.29 9.586-14.36 0.5361-0.12 1.071-0.24 1.605-0.367 0.1262-0.0262 0.2376-0.0562 0.367-0.082l-0.016-0.004c2.02-0.4873 4.018-1.028 5.997-1.616l-0.02 0.0234c0.3306-0.113 0.6318-0.2029 0.9449-0.3006 0.2996-0.0916 0.5995-0.1793 0.898-0.2733 8.04-2.255 10.17 0.9348 15.57 7.618l2.807 3.702c7.833 10.53 11.29 8.99 20.57 3.495 9.398-5.288 12.46-7.516 7.259-19.57l-1.8-4.279c-3.311-8.601-5.035-11.93 2.604-18.6l-0.2031 0.0468c1.579-1.497 3.115-3.036 4.611-4.615l-0.043 0.203c6.672-7.639 10-5.916 18.6-2.604l4.279 1.804c12.05 5.206 14.28 2.14 19.57-7.259 5.495-9.278 7.038-12.74-3.495-20.58l-3.702-2.807c-6.683-5.401-9.873-7.528-7.618-15.57 0.094-0.2986 0.1815-0.5985 0.2733-0.898 0.0978-0.3131 0.1839-0.6143 0.2967-0.9449l-0.02 0.02c0.5881-1.979 1.129-3.978 1.616-5.997l0.004 0.016c0.0256-0.1294 0.056-0.2409 0.082-0.367 0.1269-0.5334 0.2472-1.069 0.367-1.605 2.072-8 5.901-8.255 14.36-9.586l4.607-0.5779c13.04-1.517 13.44-5.288 13.32-16.07 0.12-10.78-0.2804-14.55-13.32-16.07l-4.607-0.5779c-8.456-1.331-12.29-1.585-14.36-9.586-0.12-0.5361-0.24-1.071-0.367-1.605-0.0262-0.1261-0.0562-0.2376-0.082-0.367l-0.004 0.016c-0.4873-2.02-1.028-4.018-1.616-5.997l0.0234 0.02c-0.113-0.3306-0.2029-0.6318-0.3006-0.9449-0.0916-0.2996-0.1793-0.5994-0.2733-0.898-2.255-8.04 0.9348-10.17 7.618-15.57l3.702-2.807c10.53-7.833 8.99-11.29 3.495-20.57-3.635-6.461-5.824-9.931-10.75-9.777-2.241 0.0702-5.047 0.8917-8.813 2.518l-4.279 1.8c-8.601 3.311-11.93 5.035-18.6-2.604l0.0468 0.203c-1.497-1.579-3.036-3.115-4.615-4.611l0.2031 0.043c-7.639-6.672-5.916-10-2.604-18.6l1.804-4.279c5.206-12.05 2.14-14.28-7.259-19.57-4.639-2.748-7.826-4.508-10.83-4.264-3.005 0.2442-5.83 2.492-9.746 7.758l-2.807 3.702c-5.401 6.683-7.528 9.873-15.57 7.618-0.2986-0.094-0.5985-0.1817-0.898-0.2733-0.3131-0.0978-0.6143-0.1837-0.9449-0.2968l0.02 0.02c-1.979-0.5881-3.978-1.129-5.997-1.616l0.016-0.004c-0.1293-0.0254-0.2409-0.056-0.367-0.082-0.5334-0.127-1.069-0.2472-1.605-0.367-8-2.072-8.255-5.901-9.586-14.36l-0.5779-4.607c-1.517-13.04-5.288-13.44-16.07-13.32zm-0.0234 61.96c0.008-0.00002 0.016-0.00002 0.0234 0 10.13 0.0006 19.91 1.749 29.06 4.959a23.99 23.99 0 0 0 10.92 13.75 23.99 23.99 0 0 0 17.33 2.581c14.4 12.38 24.85 29.39 28.87 49.08 1.012 4.958-2.776 9.598-7.836 9.597h-24.75c-3.537 0.0003-6.654-2.323-7.665-5.712-6.066-20.34-24.69-34.24-45.91-34.27-3.729 0.0202-7.445 0.4706-11.07 1.351-3.449 0.8376-7.038-0.6983-8.813-3.772l-12.35-21.39c-2.525-4.375-0.4108-9.966 4.377-11.58 8.966-3.018 18.36-4.57 27.82-4.596zm-52.59 20.18c2.721 0.1275 5.19 1.631 6.552 3.99l12.35 21.39c1.77 3.066 1.314 6.93-1.121 9.5-8.422 8.889-13.13 20.65-13.15 32.9 0.014 12.25 4.709 24.03 13.13 32.93 2.433 2.569 2.889 6.431 1.121 9.496l-12.32 21.34c-2.529 4.38-8.437 5.343-12.23 1.991-14.71-13.01-24.5-30.46-28.11-49.46a23.99 23.99 0 0 0 6.419 -16.3 23.99 23.99 0 0 0 -6.423 -16.29c3.607-19 13.39-36.47 28.1-49.49 1.559-1.379 3.594-2.096 5.673-1.999zm106.2 75.78h24.65c5.06-0.00048 8.849 4.64 7.836 9.597-4.015 19.67-14.45 36.68-28.84 49.06a23.99 23.99 0 0 0 -5.845 -0.6052 23.99 23.99 0 0 0 -11.43 3.206 23.99 23.99 0 0 0 -10.9 13.72c-9.147 3.224-18.94 4.983-29.07 4.994-0.012 0.00004-0.025 0.00004-0.039 0-9.456-0.0376-18.84-1.601-27.8-4.627-4.782-1.615-6.891-7.201-4.369-11.57l12.33-21.37c1.775-3.074 5.364-4.609 8.813-3.772 3.626 0.881 7.345 1.331 11.08 1.351 21.23-0.0216 39.86-13.92 45.93-34.27 1.011-3.39 4.128-5.713 7.665-5.712z"/>
 <path d="m256.7 150.3c-58.34 0-105.7 47.34-105.7 105.7 0 58.34 47.34 105.7 105.7 105.7 58.34 0 105.7-47.34 105.7-105.7 0-58.34-47.34-105.7-105.7-105.7zm-0.2793 17.63c15.54-0.0507 30.85 4.026 44.3 11.79l-18.03 31.24 18.04-31.24c21.52 12.43 37.25 33.71 42.27 58.91 1.496 7.309-3.324 9.474-8.047 9.344h-20.3c-5.971 0-6.991-2.851-8.098-6.697-3.824-13.02-12.52-23.76-23.86-30.32-11.35-6.536-25-8.694-38.19-5.498-3.885 0.9646-6.864 1.507-9.85-3.664l-10.15-17.58c-2.475-4.025-3.009-9.282 4.068-11.64 9.124-3.097 18.53-4.612 27.85-4.643zm-52.19 19.44c2.816 0.0624 5.017 2.243 6.422 4.84l10.15 17.58c2.986 5.171 1.026 7.479-1.752 10.36-9.3 9.9-14.2 22.8-14.2 35.9 0.015 13.1 4.972 26 14.33 35.82 2.778 2.882 4.738 5.19 1.752 10.36l-10.15 17.58c-2.248 4.156-6.534 7.247-12.12 2.297-7.244-6.353-13.26-13.74-17.95-21.79-7.812-13.43-11.94-28.73-11.94-44.27 0.003-24.85 10.57-49.12 29.89-66.06 2.093-1.856 4.004-2.58 5.693-2.543zm110.5 76.7h20.3c4.723-0.1306 9.543 2.035 8.047 9.344-1.88 9.45-5.268 18.35-9.902 26.44-7.724 13.48-18.91 24.71-32.36 32.47l-18.04-31.24 18.03 31.24c-21.52 12.42-47.82 15.41-72.15 7.148-7.078-2.358-6.543-7.616-4.068-11.64l10.15-17.58c2.986-5.171 5.965-4.629 9.85-3.664 13.18 3.196 26.84 1.037 38.19-5.498 11.33-6.561 20.03-17.31 23.86-30.32 1.107-3.847 2.126-6.697 8.098-6.697z" fill="#c2c2c2"/>
 <path d="m256.7 106.7c-10.73-0.1194-14.49 0.2758-16 13.26l-0.5742 4.588c-1.325 8.418-1.58 12.23-9.545 14.29-0.5337 0.1193-1.067 0.2408-1.598 0.3672-0.1255 0.0259-0.2345 0.0547-0.3633 0.0801l0.0156 0.004c-2.011 0.4851-4.002 1.024-5.973 1.609l0.0195-0.0215c-0.3291 0.1125-0.6278 0.1995-0.9394 0.2969-0.2982 0.0912-0.5973 0.1799-0.8945 0.2734-8.004 2.245-10.12-0.9307-15.5-7.584l-2.793-3.686c-3.899-5.243-6.709-7.482-9.701-7.725-0.374-0.0304-0.7507-0.03-1.133 0-2.675 0.2099-5.609 1.851-9.65 4.244-9.356 5.264-12.41 7.484-7.227 19.48l1.795 4.26c3.297 8.563 5.011 11.88-2.594 18.52l0.2031-0.0449c-1.572 1.49-3.104 3.022-4.594 4.594l0.045-0.2033c-6.642 7.605-9.956 5.89-18.52 2.594l-4.26-1.795c-3.749-1.619-6.543-2.436-8.773-2.506-4.907-0.1535-7.088 3.3-10.71 9.732-5.471 9.237-7.006 12.69 3.48 20.48l3.686 2.793c6.653 5.377 9.829 7.496 7.584 15.5-0.0935 0.2973-0.1822 0.5963-0.2734 0.8945-0.0974 0.3117-0.1844 0.6103-0.2969 0.9394l0.0215-0.0195c-0.5855 1.971-1.124 3.962-1.609 5.973l-0.004-0.0156c-0.0253 0.1288-0.0541 0.2378-0.0801 0.3633-0.1264 0.5311-0.2479 1.064-0.3672 1.598-2.063 7.965-5.875 8.22-14.29 9.545l-4.5 0.5c-12.98 1.51-13.38 5.265-13.26 16-0.1194 10.73 0.2758 14.49 13.26 16l4.588 0.5742c8.418 1.325 12.23 1.58 14.29 9.545 0.1193 0.5337 0.2408 1.067 0.3672 1.598 0.0259 0.1255 0.0547 0.2345 0.0801 0.3633l0.004-0.0156c0.4851 2.011 1.024 4.002 1.609 5.973l-0.0215-0.0195c0.1125 0.3291 0.1995 0.6278 0.2969 0.9394 0.0912 0.2982 0.1799 0.5973 0.2734 0.8945 2.245 8.004-0.9307 10.12-7.584 15.5l-3.686 2.793c-10.49 7.798-8.951 11.25-3.48 20.48 5.264 9.356 7.484 12.41 19.48 7.227l4.26-1.795c8.563-3.297 11.88-5.011 18.52 2.594l-0.0449-0.2031c1.49 1.572 3.022 3.104 4.594 4.594l-0.2-0.1c7.605 6.642 5.89 9.956 2.594 18.52l-1.795 4.26c-5.182 12-2.13 14.22 7.227 19.48 9.237 5.471 12.69 7.006 20.48-3.48l2.793-3.686c5.377-6.653 7.496-9.829 15.5-7.584 0.2973 0.0935 0.5963 0.1822 0.8945 0.2734 0.3117 0.0974 0.6103 0.1844 0.9394 0.2969l-0.0195-0.0215c1.971 0.5855 3.962 1.124 5.973 1.609l-0.0156 0.004c0.1288 0.0253 0.2378 0.0541 0.3633 0.0801 0.5311 0.1264 1.064 0.2479 1.598 0.3672 7.965 2.063 8.22 5.875 9.545 14.29l0.5 4.6c1.51 12.98 5.265 13.38 16 13.26 10.73 0.1194 14.49-0.2758 16-13.26l0.5742-4.588c1.325-8.418 1.58-12.23 9.545-14.29 0.5337-0.1193 1.067-0.2408 1.598-0.3672 0.1255-0.026 0.2345-0.0547 0.3633-0.0801l-0.0156-0.004c2.011-0.4851 4.002-1.024 5.973-1.609l-0.0195 0.0215c0.3291-0.1125 0.6278-0.1995 0.9394-0.2969 0.2982-0.0912 0.5973-0.1799 0.8945-0.2734 8.004-2.245 10.12 0.9307 15.5 7.584l2.793 3.686c7.798 10.49 11.25 8.951 20.48 3.48 9.356-5.264 12.41-7.484 7.227-19.48l-1.795-4.26c-3.3-8.5-5-11.9 2.6-18.5l-0.2031 0.0449c1.572-1.49 3.104-3.022 4.594-4.594l-0.0449 0.2032c6.642-7.605 9.956-5.89 18.52-2.594l4.26 1.795c12 5.182 14.22 2.13 19.48-7.227 5.471-9.237 7.006-12.69-3.48-20.48l-3.686-2.793c-6.653-5.377-9.829-7.496-7.584-15.5 0.0935-0.2973 0.1822-0.5963 0.2734-0.8945 0.0974-0.3117 0.1844-0.6103 0.2969-0.9394l-0.0215 0.0195c0.5855-1.971 1.124-3.962 1.609-5.973l0.004 0.0156c0.0253-0.1288 0.0541-0.2378 0.0801-0.3633 0.1264-0.5311 0.2479-1.064 0.3672-1.598 2.063-7.965 5.875-8.22 14.29-9.545l4.5-0.5c12.98-1.51 13.38-5.265 13.26-16 0.1194-10.73-0.2758-14.49-13.26-16l-4.588-0.5742c-8.418-1.325-12.23-1.58-14.29-9.545-0.1193-0.5337-0.2408-1.067-0.3672-1.598-0.026-0.1255-0.0547-0.2345-0.0801-0.3633l-0.004 0.0156c-0.4851-2.011-1.024-4.002-1.609-5.973l0.0215 0.0195c-0.1125-0.3291-0.1995-0.6278-0.2969-0.9394-0.0912-0.2982-0.1799-0.5973-0.2734-0.8945-2.245-8.004 0.9307-10.12 7.584-15.5l3.686-2.793c10.49-7.798 8.951-11.25 3.48-20.48-3.619-6.432-5.8-9.886-10.71-9.732-2.231 0.0698-5.025 0.8864-8.773 2.506l-4.26 1.795c-8.563 3.297-11.88 5.011-18.52-2.594l0.0449 0.2031c-1.49-1.572-3.022-3.104-4.594-4.594l0.3 0.1c-7.605-6.642-5.89-9.956-2.594-18.52l1.795-4.26c5.182-12 2.13-14.22-7.227-19.48-4.618-2.735-7.791-4.487-10.78-4.244-2.992 0.2431-5.802 2.482-9.701 7.725l-2.793 3.686c-5.377 6.653-7.496 9.829-15.5 7.584-0.2973-0.0935-0.5963-0.1822-0.8945-0.2734-0.3117-0.0974-0.6103-0.1844-0.9394-0.2969l0.0195 0.0215c-1.971-0.5855-3.962-1.124-5.973-1.609l0.0156-0.004c-0.1288-0.0253-0.2378-0.0541-0.3633-0.0801-0.5311-0.1264-1.064-0.2479-1.598-0.3672-7.965-2.063-8.22-5.875-9.545-14.29l-0.6-4.6c-1.51-12.98-5.265-13.38-16-13.26zm0 45.26c10.42 0 20.49 1.544 29.99 4.41a24 24 0 0 0 10.01 30.31 24 24 0 0 0 31.21 -6.443c18.4 17.2 30.5 41.1 32.5 67.7h0.3047v16h-0.3047c-2.034 26.61-14.13 50.45-32.48 67.72a24 24 0 0 0 -19.78 -9.643 24 24 0 0 0 -11.43 3.207 24 24 0 0 0 -10 30.3c-9.503 2.869-19.57 4.414-30 4.414-16.08 0-31.31-3.668-44.91-10.21l-0.1582 0.2754-6.928-4-6.928-4 0.1758-0.3027c-21-14.5-36.5-36.4-42.5-62a24 24 0 0 0 14.74 -7.434c0.2834 1.49 0.5979 2.974 0.957 4.447-0.354-1.471-0.6653-2.96-0.9453-4.459a24 24 0 0 0 6.5 -16.4 24 24 0 0 0 -6.4 -16.4c0.2118-1.136 0.4369-2.267 0.6914-3.387-0.2582 1.12-0.4865 2.247-0.7012 3.377a24 24 0 0 0 -14.74 -7.436c6.012-25.56 21.47-47.51 42.48-61.95l-0.1758-0.3027 6.928-4 6.928-4 0.1582 0.2754c13.5-6.5 28.8-10.2 44.8-10.2z" fill="#e1e1e1"/>
<g fill="#c2c2c2">
 <path d="m308 150a16 16 0 0 1 8.756 2.125 16 16 0 0 1 5.855 21.86 16 16 0 0 1 -21.86 5.855 16 16 0 0 1 -5.855 -21.86 16 16 0 0 1 13.1 -7.982z"/>
 <path d="m152.7 240a16 16 0 0 1 16 16 16 16 0 0 1 -16 16 16 16 0 0 1 -16 -16 16 16 0 0 1 16 -16z"/>
 <path d="m308.4 330.1a16 16 0 0 1 14.23 7.996 16 16 0 0 1 -5.855 21.86 16 16 0 0 1 -21.86 -5.857 16 16 0 0 1 5.855 -21.86 16 16 0 0 1 7.623 -2.141z"/>
</g>
 <circle cy="256" cx="256.4" r="37" fill="#e1e1e1"/>
</svg>
