<?xml version="1.0" encoding="UTF-8" standalone="no"?>
<!-- Created with Inkscape (http://www.inkscape.org/) -->
<svg id="svg4874" xmlns:rdf="http://www.w3.org/1999/02/22-rdf-syntax-ns#" xmlns="http://www.w3.org/2000/svg" height="24" viewBox="0 0 24 24" width="24" version="1.1" xmlns:cc="http://creativecommons.org/ns#" xmlns:dc="http://purl.org/dc/elements/1.1/">
 <metadata id="metadata4879">
  <rdf:RDF>
   <cc:Work rdf:about="">
    <dc:format>image/svg+xml</dc:format>
    <dc:type rdf:resource="http://purl.org/dc/dcmitype/StillImage"/>
    <dc:title/>
   </cc:Work>
  </rdf:RDF>
 </metadata>
 <g id="layer1" transform="translate(67.857 -150.51)">
  <rect id="rect4782-01" style="color:#000000;fill:none" transform="matrix(0,1,1,0,0,0)" height="96" width="96" y="-67.857" x="78.505"/>
  <path id="path4224" style="color-rendering:auto;text-decoration-color:#000000;color:#000000;font-variant-numeric:normal;shape-rendering:auto;solid-color:#000000;text-decoration-line:none;fill:#808080;font-variant-position:normal;mix-blend-mode:normal;font-feature-settings:normal;shape-padding:0;font-variant-alternates:normal;text-indent:0;font-variant-ligatures:normal;font-variant-caps:normal;image-rendering:auto;white-space:normal;text-decoration-style:solid;text-orientation:mixed;isolation:auto;text-transform:none" d="m-59.857 150.51v4.1976l0.16193 0.21538c0.48236 0.64072 0.9558 1.2961 1.4165 1.9777 0.58407 0.86381 1.1333 1.7464 1.646 2.649 0.49697 0.87524 1.0993 2.0985 1.5029 2.9603-0.40384 0.86223-1.0062 2.087-1.5029 2.9619-0.51268 0.90263-1.0619 1.7852-1.646 2.649-0.46031 0.68115-0.93375 1.3349-1.4165 1.9762l-0.16193 0.21538v4.1976l1.5175-1.8457c0.84258-1.0802 1.658-2.1763 2.4116-3.2999 0.84181-1.2549 1.5975-2.4738 2.267-3.6583 0.61866-1.0947 1.1218-2.1085 1.4589-2.8691l0.14464-0.327-0.14464-0.327c-0.34626-0.77642-0.84015-1.7727-1.4589-2.8676-0.6695-1.1845-1.4252-2.4035-2.267-3.6583-0.7534-1.1233-1.5688-2.2209-2.4116-3.3014z"/>
 </g>
</svg>
