<?xml version="1.0" encoding="UTF-8" standalone="no"?>
<!-- Created with Inkscape (http://www.inkscape.org/) -->
<svg id="svg4874" xmlns:rdf="http://www.w3.org/1999/02/22-rdf-syntax-ns#" xmlns="http://www.w3.org/2000/svg" height="24" viewBox="0 0 24 24" width="24" version="1.1" xmlns:cc="http://creativecommons.org/ns#" xmlns:dc="http://purl.org/dc/elements/1.1/">
 <metadata id="metadata4879">
  <rdf:RDF>
   <cc:Work rdf:about="">
    <dc:format>image/svg+xml</dc:format>
    <dc:type rdf:resource="http://purl.org/dc/dcmitype/StillImage"/>
    <dc:title/>
   </cc:Work>
  </rdf:RDF>
 </metadata>
 <g id="layer1" transform="translate(67.857 -150.51)">
  <rect id="rect4782-01" style="color:#000000;fill:none" transform="matrix(0,1,1,0,0,0)" height="96" width="96" y="-67.857" x="78.505"/>
  <path id="path4224" style="color-rendering:auto;text-decoration-color:#000000;color:#000000;font-variant-numeric:normal;shape-rendering:auto;solid-color:#000000;text-decoration-line:none;fill:#808080;font-variant-position:normal;mix-blend-mode:normal;font-feature-settings:normal;shape-padding:0;font-variant-alternates:normal;text-indent:0;font-variant-ligatures:normal;font-variant-caps:normal;image-rendering:auto;white-space:normal;text-decoration-style:solid;text-orientation:mixed;isolation:auto;text-transform:none" d="m-67.857 158.51h4.1976l0.21538 0.16193c0.64072 0.48236 1.2961 0.9558 1.9777 1.4165 0.86381 0.58406 1.7464 1.1333 2.649 1.646 0.87524 0.49697 2.0985 1.0993 2.9603 1.503 0.86223-0.40384 2.087-1.0062 2.9619-1.503 0.90263-0.51269 1.7852-1.062 2.649-1.646 0.68115-0.46031 1.3349-0.93375 1.9762-1.4165l0.21538-0.16193h4.1976l-1.8457 1.5175c-1.0802 0.84258-2.1763 1.658-3.2999 2.4116-1.2549 0.84181-2.4738 1.5975-3.6583 2.267-1.0947 0.61866-2.1085 1.1218-2.8691 1.4589l-0.327 0.14463-0.327-0.14463c-0.77642-0.34626-1.7727-0.84016-2.8676-1.4589-1.1845-0.6695-2.4035-1.4252-3.6583-2.267-1.1233-0.7534-2.2209-1.5688-3.3014-2.4116z"/>
 </g>
</svg>
